<?xml version="1.0" encoding="utf-8"?><svg version="1.1" xmlns="http://www.w3.org/2000/svg" xmlns:xlink="http://www.w3.org/1999/xlink" x="0px" y="0px" viewBox="0 0 64 64" style="enable-background:new 0 0 64 64;" xml:space="preserve"><style type="text/css">.st0{display:none;}.st1{display:inline;}.st2{font-family:'ArialRoundedMTBold';}.st3{font-size:31.9506px;}.st4{display:inline;fill:none;stroke:#000000;stroke-width:5;stroke-miterlimit:10;}.st5{display:inline;stroke:#FFFFFF;stroke-miterlimit:10;}</style><g id="Layer_5"><path id="XMLID_99_" d="M39.5,63.4c-1,0-2,0-3,0c-0.5-0.2-1-0.2-1.5-0.5c-1-0.5-2-1.1-3-1.8c-0.2,0.1-0.4,0.4-0.7,0.6c-1,0.9-2.2,1.3-3.5,1.6c-1,0-2.1,0-3.1,0c-0.4-0.1-0.8-0.2-1.2-0.3c-3.1-0.5-5.6-2-7-5c-0.1-0.2-0.4-0.4-0.6-0.4c-1.7-0.2-3.3-0.6-4.7-1.4c-2.4-1.3-4.1-3.2-4.1-6c0-1.3,0.4-2.7,0.6-4c-0.8-0.5-1.7-1-2.6-1.7C3,43.4,1.7,41.6,1,39.4c-0.1-0.2-0.1-0.5-0.2-0.7c0-0.8,0-1.5,0-2.3c0,0,0.1-0.1,0.1-0.1c0.3-1.7,1.1-3.2,2.3-4.4c0.1-0.1,0.1-0.3,0-0.5c-0.7-1.8-1.4-3.6-2.1-5.5c-0.2-0.5-0.2-1.1-0.3-1.7c0-1.1,0-2.2,0-3.3c0.4-1.3,0.7-2.7,1.1-4c0.6-1.9,1.7-3.6,3.1-5.1C6.8,9.9,8.8,8.6,11.4,8c0.2,0,0.4-0.2,0.5-0.4c0.6-1.2,1.5-2.2,2.6-3.1c2.2-1.8,4.8-2.8,7.5-3.3c0.9-0.2,1.8-0.3,2.7-0.4c1.1,0,2.3,0,3.4,0c1.5,0.3,3,0.8,4,2.1c0.3-0.3,0.6-0.5,0.9-0.8c0.9-0.8,2.1-1,3.2-1.3c1.1,0,2.3,0,3.4,0c0.1,0,0.2,0.1,0.3,0.1c1.9,0.2,3.7,0.6,5.5,1.4c2.4,1.1,4.3,2.7,5.4,5C51,7.8,51.3,8,51.7,8c4.3,1,7.5,3.4,9.8,7.2c0.9,1.5,1.6,3.1,1.8,4.9c0,0.3,0.1,0.7,0.2,1c0,1,0,2.1,0,3.1c-0.3,2-1,3.8-1.8,5.6c-0.2,0.4-0.5,0.9-0.7,1.3c-0.2,0.4-0.4,0.7,0,1.2c1.1,1,1.9,2.2,2.2,3.7c0,0.2,0.1,0.3,0.1,0.5c0,0.9,0,1.8,0,2.7c0,0.2-0.1,0.4-0.1,0.7c-0.2,0.7-0.3,1.4-0.6,2.1c-1,2.1-2.7,3.5-4.8,4.4c0.1,0.1,0.1,0.1,0.2,0.2c1.2,2.5,1.3,4.9-0.3,7.3c-1.1,1.8-2.8,2.8-4.7,3.3c-1.5,0.4-3,0.5-4.5,0.8c-0.3,0-0.6,0.2-0.7,0.4c-1.3,2.6-3.4,4.1-6.2,4.7C40.9,63.2,40.2,63.3,39.5,63.4z M30.6,22.6c0-4.8,0-9.5,0-14.2c0-1-0.2-2.1-0.5-3.1c-0.2-0.8-0.9-1.4-1.8-1.6c-0.6-0.1-1.2-0.2-1.8-0.1c-2.6,0.1-5.2,0.4-7.6,1.6c-1.9,0.9-3.8,2-4.6,4.1c-0.3,0.7-0.7,1.1-1.6,1.1c-1.4,0.1-2.6,0.7-3.7,1.5c-2.3,1.6-3.7,3.8-4.6,6.4C3.3,22,3.7,25.6,5.4,29.1c0.1,0.1,0.3,0.3,0.5,0.3c1.7,0,3.5,0,5.2,0c0.2,0,0.4-0.1,0.5-0.3c0.3-0.8,0.9-1.3,1.6-1.7c1.9-1.2,4.3-0.8,5.8,0.7c1.6,1.7,1.2,4.6-0.7,5.9c-2.1,1.5-5.5,1-6.8-1.5c-0.1-0.2-0.4-0.3-0.5-0.3c-1.4,0-2.7,0-4.1,0c-0.1,0-0.3,0-0.4,0.1c-0.8,0.9-1.8,1.7-2.3,2.8c-1,2.1-0.8,4.1,0.6,6.1c1.1,1.5,2.7,2.4,4.4,3.1c0.8,0.3,1.7,0.6,2.6,0.9c-0.3,0.5-0.6,0.9-0.8,1.3c-0.4,0.8-0.9,1.6-1.2,2.4c-0.5,1.5-0.2,2.9,0.8,4c0.9,1,2,1.7,3.3,2c1.4,0.3,2.8,0.5,4.2,0.7c0.2,0.5,0.4,1.2,0.7,1.8c0.4,0.7,0.8,1.3,1.4,1.8c1.8,1.5,4.1,1.6,6.3,1.6c0.8,0,1.6-0.3,2.2-0.7c1.2-0.7,1.6-1.8,1.6-3.2c0-5.8,0-11.6,0-17.4c0-0.2,0-0.3,0-0.5c-2.5,0-5,0-7.5,0c0,1.8,0,3.6,0,5.3c0,0.2,0.3,0.4,0.4,0.5c1.9,0.9,2.9,2.5,2.4,4.7c-0.4,2-2.8,3.4-5,3.1c-2.4-0.4-3.8-2-3.9-4.1c0-1.6,0.9-2.9,2.5-3.6c0.4-0.2,0.4-0.4,0.4-0.7c0-2.4,0-4.8,0-7.1c0-0.2,0-0.5,0-0.8c3.5,0,7,0,10.4,0c0-3.6,0-7.2,0-10.9c-2.5,0-5,0-7.5,0c0-2.3,0-4.5,0-6.8c-1,0-2,0-3,0c-0.1,0-0.3,0.2-0.4,0.3c-0.3,0.8-0.9,1.3-1.6,1.7c-1.9,1.2-4.4,0.9-6-0.8c-1.3-1.4-1.3-4.2,0.7-5.7c2-1.5,5.2-1.1,6.6,0.9c0.4,0.7,0.9,0.9,1.6,0.9c1.2-0.1,2.4,0,3.6,0c0.5,0,0.9,0,1.5,0c0,2.3,0,4.5,0,6.8c1.4,0,2.7,0,4.1,0C30.4,22.6,30.5,22.6,30.6,22.6z M45.5,15.8c0.8-0.8,1.3-1.5,2.1-2c1.8-1.3,4.4-0.9,6,0.8c1.3,1.4,1.3,4.2-0.7,5.7c-2.2,1.6-5.6,1-6.8-1.4c-0.2-0.4-0.4-0.4-0.8-0.4c-3.7,0-7.3,0-11,0c-0.2,0-0.4,0-0.6,0c0,9.5,0,19,0,28.5c2,0,3.9,0,5.8,0c0.2,0,0.3-0.1,0.5-0.3c0.4-0.5,0.8-1.1,1.3-1.5c1.7-1.4,4.5-1.3,6.1,0.3c1.9,1.9,1.1,5-0.7,6.1c-1.9,1.2-5.3,1.1-6.7-1.7c-0.1-0.1-0.3-0.3-0.4-0.3c-2,0-3.9,0-5.9,0c0,2.6,0,5.2,0,7.7c0,1.6,1.4,2.8,2.8,3c1.8,0.3,3.6,0,5.3-0.5c1.7-0.5,3-1.5,3.6-3.2c0.2-0.5,0.4-1,0.6-1.6c0.4,0,0.8,0,1.1,0c2.1-0.1,4.2-0.2,6.1-1.1c1.4-0.6,2.4-1.6,2.7-3.2c0.2-1.3-0.1-2.5-0.7-3.5c-0.7-1.1-0.7-2.2-0.7-3.4c0-0.9,0-1.8,0-2.7c0-0.3,0-0.6,0-1c-4.5,0-8.9,0-13.3,0c0-2.2,0-4.3,0-6.5c0-0.4-0.1-0.5-0.5-0.7c-0.7-0.5-1.5-1-2-1.7c-1.4-2.2-0.2-4.8,2.2-5.8c2.2-0.8,5.3,0.2,5.9,2.7c0.1,0.6,0.4,1.2,0.2,1.7c-0.4,1.4-1.2,2.5-2.6,3.1c-0.1,0-0.3,0.3-0.3,0.4c0,1.3,0,2.7,0,4.1c4.5,0,8.9,0,13.4,0c0,2,0,3.9,0,5.9c1.3-0.8,2.3-1.7,2.6-3.1c0.2-1.1,0.3-2.2,0.4-3.3c0-0.9-0.2-1.8-0.9-2.4c-0.6-0.6-1.3-1.3-2-1.8c-0.4-0.3-0.4-0.6-0.2-1c0.8-1.6,1.6-3.2,2.2-4.8c1.5-4,0.9-7.9-1.4-11.4c-0.5-0.7-1-1.4-1.7-1.9c-2-1.8-4.4-3.1-7.2-3.3c-0.2,0-0.5-0.2-0.6-0.4c-0.2-0.4-0.4-0.9-0.6-1.4c-0.5-1.3-1.5-2.3-2.6-3c-2.6-1.7-5.6-2-8.7-1.9c-1,0-2,0.2-2.4,1.2c-0.3,0.7-0.7,1.5-0.7,2.3c-0.1,2.8-0.1,5.7-0.2,8.5c0,0.1,0,0.1,0.1,0.2C37.8,15.8,41.8,15.8,45.5,15.8z M44.1,29.4c0-0.7-0.8-1.4-1.6-1.3c-0.8,0-1.4,0.6-1.4,1.4c0,0.8,0.7,1.4,1.5,1.3C43.4,30.7,44.1,30,44.1,29.4z M20.2,48.5c0,0.7,0.8,1.4,1.6,1.4c0.8,0,1.4-0.6,1.4-1.3c0-0.8-0.6-1.4-1.5-1.4C20.9,47.1,20.2,47.8,20.2,48.5z M44,47.1c-0.8,0-1.4,0.6-1.4,1.4c0,0.8,0.7,1.4,1.5,1.4c0.7,0,1.5-0.8,1.5-1.4C45.6,47.8,44.7,47.1,44,47.1z M50,18.5c0.8,0,1.4-0.6,1.4-1.3c0-0.8-0.6-1.4-1.4-1.4c-0.7,0-1.5,0.7-1.5,1.4C48.5,17.8,49.3,18.5,50,18.5z M15.8,32.1c0.8,0,1.4-0.6,1.4-1.3c0-0.8-0.7-1.4-1.5-1.4c-0.8,0-1.4,0.6-1.4,1.4C14.3,31.6,15,32.1,15.8,32.1z M17.1,17.2c0-0.7-0.6-1.4-1.4-1.4c-0.8,0-1.4,0.6-1.5,1.3c0,0.8,0.6,1.4,1.4,1.4C16.5,18.5,17.1,17.9,17.1,17.2z"/></g><g id="icon-1" class="st0"><g id="XMLID_1_" class="st1"><path id="XMLID_55_" d="M55.7,44c2-9.4,4-18.8,6-28.4c-1.2-0.2-2.2-0.3-3.4-0.4c0.1-1.3-0.7-2.8,0.9-3.1c2.4-0.6,4.6,0.8,4.7,3.1c0.1,1.5-0.2,3.1-0.4,4.6c-2.6,13-5.2,26-7.8,39c-0.8,3.9-2,5.2-5.2,5.2c-15.3,0-30.6,0-45.9,0C1.4,64,0,62.4,0,58.2C0,40.7,0,23.3,0,5.8C0,1.6,1.3,0,4.6,0C20,0,35.3,0,50.7,0c3.4,0,4.6,1.4,4.6,5.7c0,12.1,0,24.1,0,36.2c0,0.7,0,1.4,0,2.1C55.4,44,55.5,44,55.7,44z M27.7,60.8c7.6,0,15.2,0,22.8,0c1.7,0,2.3-0.6,2.3-2.8c-0.1-17.4-0.1-34.8,0-52.2c0-2-0.5-2.7-2.1-2.7c-15.2,0.1-30.5,0.1-45.7,0c-1.6,0-2.1,0.6-2.1,2.7c0.1,17.4,0,34.8,0,52.2c0,2.7,0,2.8,2.3,2.8C12.6,60.8,20.1,60.8,27.7,60.8z"/><path id="XMLID_47_" d="M18,28c-2.8,0-5.6-0.1-8.4,0c-1.4,0-1.9-0.6-1.9-2.3c0.1-3.6,0.1-7.3,0-10.9c0-1.6,0.5-2.1,1.7-2.1c5.7,0,11.4,0,17.1,0c1.1,0,1.6,0.5,1.6,2c-0.1,3.8-0.1,7.6,0,11.3c0,1.6-0.5,2.1-1.7,2C23.6,28,20.8,28,18,28z"/><path id="XMLID_46_" d="M28,36.6c5.9,0,11.7,0,17.6,0c0.9,0,1.8-0.1,1.8,1.6c0,1.7-0.8,1.7-1.8,1.7c-11.9,0-23.7,0-35.6,0c-1,0-1.7-0.1-1.7-1.7c0-1.6,0.8-1.5,1.7-1.5C16,36.6,22,36.6,28,36.6z"/><path id="XMLID_45_" d="M27.8,51.9c-5.9,0-11.7,0-17.6,0c-1,0-1.9,0.2-1.9-1.7c0-1.9,1-1.7,1.9-1.7c11.7,0,23.5,0,35.2,0c1,0,1.9-0.2,1.9,1.7c0,1.9-1,1.7-1.9,1.7C39.6,51.9,33.7,51.9,27.8,51.9z"/><path id="XMLID_44_" d="M34.1,24.6c1.5,0,2.8,0,4.1,0c2.5,0,5.1,0,7.6,0c0.9,0,1.4,0.3,1.4,1.6c0,1.1-0.2,1.8-1.3,1.8c-3.5,0-7.1,0-10.7,0C33.3,28,34.2,26.2,34.1,24.6z"/><path id="XMLID_43_" d="M47.2,12.7c0.2,3.3,0.2,3.3-2,3.3c-3.2,0-6.4,0-9.6,0c-1,0-1.5-0.3-1.5-1.7c0-1.3,0.5-1.6,1.4-1.6C39.3,12.7,43.2,12.7,47.2,12.7z"/></g></g><g id="Layer_3" class="st0"><text id="XMLID_2_" transform="matrix(1 0 0 1 13.3332 42.085)" class="st1 st2 st3">60</text><circle id="XMLID_3_" class="st4" cx="32" cy="32" r="28.7"/><path id="XMLID_12_" class="st5" d="M58.4,40.9l-5.7,0l0-1.5l0-4.2c0-0.8-0.3-1.5-1-1.9c-0.2-0.1-0.4-0.2-0.6-0.3l-0.2-0.1L50,32.8L49.6,33c-0.2,0.1-0.4,0.2-0.6,0.3c-0.6,0.4-0.9,1-0.9,1.8l0,4.4l0,1.3l-1.4,0c-1.4,0-2.8,0-4.2,0c-1.2,0-2.1,0.6-2.4,1.7l-0.1,0.1l0,1l0,0.1c0.2,1,1.2,1.7,2.3,1.7c1.4,0,2.8,0,4.2,0l1.4,0l0,5.6c0,0.2,0,0.4,0,0.6c0.1,0.6,0.4,1.1,0.9,1.4c0.4,0.3,0.8,0.4,1.3,0.4c0.1,0,0.3,0,0.4,0c1.1-0.2,1.8-1.1,1.8-2.3l0-4.3l0-1.4l1.5,0c1.4,0,2.8,0,4.2,0c0.6,0,1.2-0.2,1.6-0.7c0.4-0.4,0.7-1,0.6-1.6C60.7,41.8,59.7,40.9,58.4,40.9z"/></g></svg>